<mxfile host="app.diagrams.net" agent="Mozilla/5.0 (Windows NT 10.0; Win64; x64) AppleWebKit/537.36 (KHTML, like Gecko) Chrome/133.0.0.0 Safari/537.36" version="26.0.16">
  <diagram name="Page-1" id="9WA8aTpymHiCZeOOzlhN">
    <mxGraphModel dx="1420" dy="724" grid="1" gridSize="10" guides="1" tooltips="1" connect="1" arrows="1" fold="1" page="1" pageScale="1" pageWidth="850" pageHeight="1100" math="0" shadow="0">
      <root>
        <mxCell id="0" />
        <mxCell id="1" parent="0" />
        <UserObject label="" plantUmlData="{&quot;data&quot;:&quot;@startuml\nleft to right direction\n\nactor Администратор\n\n\nАдминистратор --&gt; (Управление шаблонами)\nАдминистратор --&gt; (Управление системами обработки)\nАдминистратор --&gt; (Изменение статуса заявления)\nАдминистратор --&gt; (Просмотр всех заявлений)\nАдминистратор --&gt; (Регистрация)\nАдминистратор --&gt; (Авторизация)\n(Авторизация) &lt;.. (Восстановление пароля) : extend\n@enduml&quot;,&quot;format&quot;:&quot;svg&quot;}" id="AWK_muKSpeGiGU1qHM5k-1">
          <mxCell style="shape=image;noLabel=1;verticalAlign=top;aspect=fixed;imageAspect=0;image=data:image/svg+xml,PD94bWwgdmVyc2lvbj0iMS4wIiBlbmNvZGluZz0idXMtYXNjaWkiIHN0YW5kYWxvbmU9Im5vIj8+PHN2ZyB4bWxucz0iaHR0cDovL3d3dy53My5vcmcvMjAwMC9zdmciIHhtbG5zOnhsaW5rPSJodHRwOi8vd3d3LnczLm9yZy8xOTk5L3hsaW5rIiBjb250ZW50U3R5bGVUeXBlPSJ0ZXh0L2NzcyIgaGVpZ2h0PSI0MzhweCIgcHJlc2VydmVBc3BlY3RSYXRpbz0ibm9uZSIgc3R5bGU9IndpZHRoOjY5MXB4O2hlaWdodDo0MzhweDtiYWNrZ3JvdW5kOiNGRkZGRkY7IiB2ZXJzaW9uPSIxLjEiIHZpZXdCb3g9IjAgMCA2OTEgNDM4IiB3aWR0aD0iNjkxcHgiIHpvb21BbmRQYW49Im1hZ25pZnkiPjxkZWZzLz48Zz48IS0tZW50aXR5ID8/Pz8/Pz8/Pz8/Pz8tLT48ZyBpZD0iZWxlbV8mIzEwNDA7JiMxMDc2OyYjMTA4NDsmIzEwODA7JiMxMDg1OyYjMTA4MDsmIzEwODk7JiMxMDkwOyYjMTA4ODsmIzEwNzI7JiMxMDkwOyYjMTA4NjsmIzEwODg7Ij48ZWxsaXBzZSBjeD0iNTEuNSIgY3k9IjIwNiIgZmlsbD0iI0YxRjFGMSIgcng9IjgiIHJ5PSI4IiBzdHlsZT0ic3Ryb2tlOiMxODE4MTg7c3Ryb2tlLXdpZHRoOjAuNTsiLz48cGF0aCBkPSJNNTEuNSwyMTQgTDUxLjUsMjQxIE0zOC41LDIyMiBMNjQuNSwyMjIgTTUxLjUsMjQxIEwzOC41LDI1NiBNNTEuNSwyNDEgTDY0LjUsMjU2ICIgZmlsbD0ibm9uZSIgc3R5bGU9InN0cm9rZTojMTgxODE4O3N0cm9rZS13aWR0aDowLjU7Ii8+PHRleHQgZmlsbD0iIzAwMDAwMCIgZm9udC1mYW1pbHk9InNhbnMtc2VyaWYiIGZvbnQtc2l6ZT0iMTQiIGxlbmd0aEFkanVzdD0ic3BhY2luZyIgdGV4dExlbmd0aD0iOTEiIHg9IjYiIHk9IjI3MC43MzQ0Ij4mIzEwNDA7JiMxMDc2OyYjMTA4NDsmIzEwODA7JiMxMDg1OyYjMTA4MDsmIzEwODk7JiMxMDkwOyYjMTA4ODsmIzEwNzI7JiMxMDkwOyYjMTA4NjsmIzEwODg7PC90ZXh0PjwvZz48ZyBpZD0iZWxlbV8mIzEwNTk7JiMxMDg3OyYjMTA4ODsmIzEwNzI7JiMxMDc0OyYjMTA4MzsmIzEwNzc7JiMxMDg1OyYjMTA4MDsmIzEwNzc7ICYjMTA5NjsmIzEwNzI7JiMxMDczOyYjMTA4MzsmIzEwODY7JiMxMDg1OyYjMTA3MjsmIzEwODQ7JiMxMDgwOyI+PGVsbGlwc2UgY3g9IjI3OC41Nzg5IiBjeT0iMjYuMjE1OCIgZmlsbD0iI0YxRjFGMSIgcng9Ijg5LjA3ODkiIHJ5PSIyMC4yMTU4IiBzdHlsZT0ic3Ryb2tlOiMxODE4MTg7c3Ryb2tlLXdpZHRoOjAuNTsiLz48dGV4dCBmaWxsPSIjMDAwMDAwIiBmb250LWZhbWlseT0ic2Fucy1zZXJpZiIgZm9udC1zaXplPSIxNCIgbGVuZ3RoQWRqdXN0PSJzcGFjaW5nIiB0ZXh0TGVuZ3RoPSIxNDMiIHg9IjIwNy4wNzg5IiB5PSIyOS45NTgiPiYjMTA1OTsmIzEwODc7JiMxMDg4OyYjMTA3MjsmIzEwNzQ7JiMxMDgzOyYjMTA3NzsmIzEwODU7JiMxMDgwOyYjMTA3NzsgJiMxMDk2OyYjMTA3MjsmIzEwNzM7JiMxMDgzOyYjMTA4NjsmIzEwODU7JiMxMDcyOyYjMTA4NDsmIzEwODA7PC90ZXh0PjwvZz48ZyBpZD0iZWxlbV8mIzEwNTk7JiMxMDg3OyYjMTA4ODsmIzEwNzI7JiMxMDc0OyYjMTA4MzsmIzEwNzc7JiMxMDg1OyYjMTA4MDsmIzEwNzc7ICYjMTA4OTsmIzEwODA7JiMxMDg5OyYjMTA5MDsmIzEwNzc7JiMxMDg0OyYjMTA3MjsmIzEwODQ7JiMxMDgwOyAmIzEwODY7JiMxMDczOyYjMTA4ODsmIzEwNzI7JiMxMDczOyYjMTA4NjsmIzEwOTA7JiMxMDgyOyYjMTA4MDsiPjxlbGxpcHNlIGN4PSIyNzguNjI0NyIgY3k9IjEwOC4wMjQ5IiBmaWxsPSIjRjFGMUYxIiByeD0iMTIwLjYyNDciIHJ5PSIyNi41MjQ5IiBzdHlsZT0ic3Ryb2tlOiMxODE4MTg7c3Ryb2tlLXdpZHRoOjAuNTsiLz48dGV4dCBmaWxsPSIjMDAwMDAwIiBmb250LWZhbWlseT0ic2Fucy1zZXJpZiIgZm9udC1zaXplPSIxNCIgbGVuZ3RoQWRqdXN0PSJzcGFjaW5nIiB0ZXh0TGVuZ3RoPSIyMTEiIHg9IjE3My4xMjQ3IiB5PSIxMTEuNzY3MSI+JiMxMDU5OyYjMTA4NzsmIzEwODg7JiMxMDcyOyYjMTA3NDsmIzEwODM7JiMxMDc3OyYjMTA4NTsmIzEwODA7JiMxMDc3OyAmIzEwODk7JiMxMDgwOyYjMTA4OTsmIzEwOTA7JiMxMDc3OyYjMTA4NDsmIzEwNzI7JiMxMDg0OyYjMTA4MDsgJiMxMDg2OyYjMTA3MzsmIzEwODg7JiMxMDcyOyYjMTA3MzsmIzEwODY7JiMxMDkwOyYjMTA4MjsmIzEwODA7PC90ZXh0PjwvZz48ZyBpZD0iZWxlbV8mIzEwNDg7JiMxMDc5OyYjMTA4NDsmIzEwNzc7JiMxMDg1OyYjMTA3NzsmIzEwODU7JiMxMDgwOyYjMTA3NzsgJiMxMDg5OyYjMTA5MDsmIzEwNzI7JiMxMDkwOyYjMTA5MTsmIzEwODk7JiMxMDcyOyAmIzEwNzk7JiMxMDcyOyYjMTEwMzsmIzEwNzQ7JiMxMDgzOyYjMTA3NzsmIzEwODU7JiMxMDgwOyYjMTEwMzsiPjxlbGxpcHNlIGN4PSIyNzguNzIzNCIgY3k9IjE5NC4wNDQ3IiBmaWxsPSIjRjFGMUYxIiByeD0iMTEwLjcyMzQiIHJ5PSIyNC41NDQ3IiBzdHlsZT0ic3Ryb2tlOiMxODE4MTg7c3Ryb2tlLXdpZHRoOjAuNTsiLz48dGV4dCBmaWxsPSIjMDAwMDAwIiBmb250LWZhbWlseT0ic2Fucy1zZXJpZiIgZm9udC1zaXplPSIxNCIgbGVuZ3RoQWRqdXN0PSJzcGFjaW5nIiB0ZXh0TGVuZ3RoPSIxOTAiIHg9IjE4My43MjM0IiB5PSIxOTcuNzg2OSI+JiMxMDQ4OyYjMTA3OTsmIzEwODQ7JiMxMDc3OyYjMTA4NTsmIzEwNzc7JiMxMDg1OyYjMTA4MDsmIzEwNzc7ICYjMTA4OTsmIzEwOTA7JiMxMDcyOyYjMTA5MDsmIzEwOTE7JiMxMDg5OyYjMTA3MjsgJiMxMDc5OyYjMTA3MjsmIzExMDM7JiMxMDc0OyYjMTA4MzsmIzEwNzc7JiMxMDg1OyYjMTA4MDsmIzExMDM7PC90ZXh0PjwvZz48ZyBpZD0iZWxlbV8mIzEwNTU7JiMxMDg4OyYjMTA4NjsmIzEwODk7JiMxMDg0OyYjMTA4NjsmIzEwOTA7JiMxMDg4OyAmIzEwNzQ7JiMxMDg5OyYjMTA3NzsmIzEwOTM7ICYjMTA3OTsmIzEwNzI7JiMxMTAzOyYjMTA3NDsmIzEwODM7JiMxMDc3OyYjMTA4NTsmIzEwODA7JiMxMDgxOyI+PGVsbGlwc2UgY3g9IjI3OC43MjIzIiBjeT0iMjc1Ljk0NDUiIGZpbGw9IiNGMUYxRjEiIHJ4PSI5Ny43MjIzIiByeT0iMjEuOTQ0NSIgc3R5bGU9InN0cm9rZTojMTgxODE4O3N0cm9rZS13aWR0aDowLjU7Ii8+PHRleHQgZmlsbD0iIzAwMDAwMCIgZm9udC1mYW1pbHk9InNhbnMtc2VyaWYiIGZvbnQtc2l6ZT0iMTQiIGxlbmd0aEFkanVzdD0ic3BhY2luZyIgdGV4dExlbmd0aD0iMTYyIiB4PSIxOTcuNzIyMyIgeT0iMjc5LjY4NjciPiYjMTA1NTsmIzEwODg7JiMxMDg2OyYjMTA4OTsmIzEwODQ7JiMxMDg2OyYjMTA5MDsmIzEwODg7ICYjMTA3NDsmIzEwODk7JiMxMDc3OyYjMTA5MzsgJiMxMDc5OyYjMTA3MjsmIzExMDM7JiMxMDc0OyYjMTA4MzsmIzEwNzc7JiMxMDg1OyYjMTA4MDsmIzEwODE7PC90ZXh0PjwvZz48ZyBpZD0iZWxlbV8mIzEwNTY7JiMxMDc3OyYjMTA3NTsmIzEwODA7JiMxMDg5OyYjMTA5MDsmIzEwODg7JiMxMDcyOyYjMTA5NDsmIzEwODA7JiMxMTAzOyI+PGVsbGlwc2UgY3g9IjI3OC42Njg1IiBjeT0iMzQ4LjEzMzciIGZpbGw9IiNGMUYxRjEiIHJ4PSI2MS4xNjg1IiByeT0iMTQuNjMzNyIgc3R5bGU9InN0cm9rZTojMTgxODE4O3N0cm9rZS13aWR0aDowLjU7Ii8+PHRleHQgZmlsbD0iIzAwMDAwMCIgZm9udC1mYW1pbHk9InNhbnMtc2VyaWYiIGZvbnQtc2l6ZT0iMTQiIGxlbmd0aEFkanVzdD0ic3BhY2luZyIgdGV4dExlbmd0aD0iNzciIHg9IjI0MC4xNjg1IiB5PSIzNTEuODc1OSI+JiMxMDU2OyYjMTA3NzsmIzEwNzU7JiMxMDgwOyYjMTA4OTsmIzEwOTA7JiMxMDg4OyYjMTA3MjsmIzEwOTQ7JiMxMDgwOyYjMTEwMzs8L3RleHQ+PC9nPjxnIGlkPSJlbGVtXyYjMTA0MDsmIzEwNzQ7JiMxMDkwOyYjMTA4NjsmIzEwODg7JiMxMDgwOyYjMTA3OTsmIzEwNzI7JiMxMDk0OyYjMTA4MDsmIzExMDM7Ij48ZWxsaXBzZSBjeD0iMjc4LjY2ODUiIGN5PSI0MTIuMTMzNyIgZmlsbD0iI0YxRjFGMSIgcng9IjYxLjE2ODUiIHJ5PSIxNC42MzM3IiBzdHlsZT0ic3Ryb2tlOiMxODE4MTg7c3Ryb2tlLXdpZHRoOjAuNTsiLz48dGV4dCBmaWxsPSIjMDAwMDAwIiBmb250LWZhbWlseT0ic2Fucy1zZXJpZiIgZm9udC1zaXplPSIxNCIgbGVuZ3RoQWRqdXN0PSJzcGFjaW5nIiB0ZXh0TGVuZ3RoPSI3NyIgeD0iMjQwLjE2ODUiIHk9IjQxNS44NzU5Ij4mIzEwNDA7JiMxMDc0OyYjMTA5MDsmIzEwODY7JiMxMDg4OyYjMTA4MDsmIzEwNzk7JiMxMDcyOyYjMTA5NDsmIzEwODA7JiMxMTAzOzwvdGV4dD48L2c+PGcgaWQ9ImVsZW1fJiMxMDQyOyYjMTA4NjsmIzEwODk7JiMxMDg5OyYjMTA5MDsmIzEwNzI7JiMxMDg1OyYjMTA4NjsmIzEwNzQ7JiMxMDgzOyYjMTA3NzsmIzEwODU7JiMxMDgwOyYjMTA3NzsgJiMxMDg3OyYjMTA3MjsmIzEwODg7JiMxMDg2OyYjMTA4MzsmIzExMDM7Ij48ZWxsaXBzZSBjeD0iNTkzLjc4OTUiIGN5PSI0MTEuNzU3OSIgZmlsbD0iI0YxRjFGMSIgcng9IjkxLjc4OTUiIHJ5PSIyMC43NTc5IiBzdHlsZT0ic3Ryb2tlOiMxODE4MTg7c3Ryb2tlLXdpZHRoOjAuNTsiLz48dGV4dCBmaWxsPSIjMDAwMDAwIiBmb250LWZhbWlseT0ic2Fucy1zZXJpZiIgZm9udC1zaXplPSIxNCIgbGVuZ3RoQWRqdXN0PSJzcGFjaW5nIiB0ZXh0TGVuZ3RoPSIxNDkiIHg9IjUxOS4yODk1IiB5PSI0MTUuNTAwMSI+JiMxMDQyOyYjMTA4NjsmIzEwODk7JiMxMDg5OyYjMTA5MDsmIzEwNzI7JiMxMDg1OyYjMTA4NjsmIzEwNzQ7JiMxMDgzOyYjMTA3NzsmIzEwODU7JiMxMDgwOyYjMTA3NzsgJiMxMDg3OyYjMTA3MjsmIzEwODg7JiMxMDg2OyYjMTA4MzsmIzExMDM7PC90ZXh0PjwvZz48IS0tbGluayA/Pz8/Pz8/Pz8/Pz8/IHRvID8/Pz8/Pz8/Pz8gPz8/Pz8/Pz8/LS0+PGcgaWQ9ImxpbmtfJiMxMDQwOyYjMTA3NjsmIzEwODQ7JiMxMDgwOyYjMTA4NTsmIzEwODA7JiMxMDg5OyYjMTA5MDsmIzEwODg7JiMxMDcyOyYjMTA5MDsmIzEwODY7JiMxMDg4O18mIzEwNTk7JiMxMDg3OyYjMTA4ODsmIzEwNzI7JiMxMDc0OyYjMTA4MzsmIzEwNzc7JiMxMDg1OyYjMTA4MDsmIzEwNzc7ICYjMTA5NjsmIzEwNzI7JiMxMDczOyYjMTA4MzsmIzEwODY7JiMxMDg1OyYjMTA3MjsmIzEwODQ7JiMxMDgwOyI+PHBhdGggZD0iTTY2LjU2LDE5Ny4xOSBDODIuODYsMTU4LjM4IDExMy4zMiw5OC44OSAxNTgsNjQgQzE3Mi44NCw1Mi40MSAxODUuNTc2NSw0Ni4xMTA0IDIwMy41MDY1LDQwLjQ3MDQgIiBmaWxsPSJub25lIiBpZD0iJiMxMDQwOyYjMTA3NjsmIzEwODQ7JiMxMDgwOyYjMTA4NTsmIzEwODA7JiMxMDg5OyYjMTA5MDsmIzEwODg7JiMxMDcyOyYjMTA5MDsmIzEwODY7JiMxMDg4Oy10by0mIzEwNTk7JiMxMDg3OyYjMTA4ODsmIzEwNzI7JiMxMDc0OyYjMTA4MzsmIzEwNzc7JiMxMDg1OyYjMTA4MDsmIzEwNzc7ICYjMTA5NjsmIzEwNzI7JiMxMDczOyYjMTA4MzsmIzEwODY7JiMxMDg1OyYjMTA3MjsmIzEwODQ7JiMxMDgwOyIgc3R5bGU9InN0cm9rZTojMTgxODE4O3N0cm9rZS13aWR0aDoxLjA7Ii8+PHBvbHlnb24gZmlsbD0iIzE4MTgxOCIgcG9pbnRzPSIyMDkuMjMsMzguNjcsMTk5LjQ0NDUsMzcuNTU0OSwyMDQuNDYwNCw0MC4xNzAzLDIwMS44NDUsNDUuMTg2MiwyMDkuMjMsMzguNjciIHN0eWxlPSJzdHJva2U6IzE4MTgxODtzdHJva2Utd2lkdGg6MS4wOyIvPjwvZz48IS0tbGluayA/Pz8/Pz8/Pz8/Pz8/IHRvID8/Pz8/Pz8/Pz8gPz8/Pz8/Pz8/ID8/Pz8/Pz8/Py0tPjxnIGlkPSJsaW5rXyYjMTA0MDsmIzEwNzY7JiMxMDg0OyYjMTA4MDsmIzEwODU7JiMxMDgwOyYjMTA4OTsmIzEwOTA7JiMxMDg4OyYjMTA3MjsmIzEwOTA7JiMxMDg2OyYjMTA4ODtfJiMxMDU5OyYjMTA4NzsmIzEwODg7JiMxMDcyOyYjMTA3NDsmIzEwODM7JiMxMDc3OyYjMTA4NTsmIzEwODA7JiMxMDc3OyAmIzEwODk7JiMxMDgwOyYjMTA4OTsmIzEwOTA7JiMxMDc3OyYjMTA4NDsmIzEwNzI7JiMxMDg0OyYjMTA4MDsgJiMxMDg2OyYjMTA3MzsmIzEwODg7JiMxMDcyOyYjMTA3MzsmIzEwODY7JiMxMDkwOyYjMTA4MjsmIzEwODA7Ij48cGF0aCBkPSJNOTMuOTYsMTk3LjQzIEMxMTIuNTksMTgxLjkgMTM1LjQyLDE2NC42MiAxNTgsMTUyIEMxNzMuNDQsMTQzLjM3IDE4NS4yODM1LDEzNy45NTA4IDIwMS45OTM1LDEzMS42NzA4ICIgZmlsbD0ibm9uZSIgaWQ9IiYjMTA0MDsmIzEwNzY7JiMxMDg0OyYjMTA4MDsmIzEwODU7JiMxMDgwOyYjMTA4OTsmIzEwOTA7JiMxMDg4OyYjMTA3MjsmIzEwOTA7JiMxMDg2OyYjMTA4ODstdG8tJiMxMDU5OyYjMTA4NzsmIzEwODg7JiMxMDcyOyYjMTA3NDsmIzEwODM7JiMxMDc3OyYjMTA4NTsmIzEwODA7JiMxMDc3OyAmIzEwODk7JiMxMDgwOyYjMTA4OTsmIzEwOTA7JiMxMDc3OyYjMTA4NDsmIzEwNzI7JiMxMDg0OyYjMTA4MDsgJiMxMDg2OyYjMTA3MzsmIzEwODg7JiMxMDcyOyYjMTA3MzsmIzEwODY7JiMxMDkwOyYjMTA4MjsmIzEwODA7IiBzdHlsZT0ic3Ryb2tlOiMxODE4MTg7c3Ryb2tlLXdpZHRoOjEuMDsiLz48cG9seWdvbiBmaWxsPSIjMTgxODE4IiBwb2ludHM9IjIwNy42MSwxMjkuNTYsMTk3Ljc3ODEsMTI4Ljk4MTksMjAyLjkyOTYsMTMxLjMxOSwyMDAuNTkyNSwxMzYuNDcwNSwyMDcuNjEsMTI5LjU2IiBzdHlsZT0ic3Ryb2tlOiMxODE4MTg7c3Ryb2tlLXdpZHRoOjEuMDsiLz48L2c+PCEtLWxpbmsgPz8/Pz8/Pz8/Pz8/PyB0byA/Pz8/Pz8/Pz8gPz8/Pz8/PyA/Pz8/Pz8/Pz8tLT48ZyBpZD0ibGlua18mIzEwNDA7JiMxMDc2OyYjMTA4NDsmIzEwODA7JiMxMDg1OyYjMTA4MDsmIzEwODk7JiMxMDkwOyYjMTA4ODsmIzEwNzI7JiMxMDkwOyYjMTA4NjsmIzEwODg7XyYjMTA0ODsmIzEwNzk7JiMxMDg0OyYjMTA3NzsmIzEwODU7JiMxMDc3OyYjMTA4NTsmIzEwODA7JiMxMDc3OyAmIzEwODk7JiMxMDkwOyYjMTA3MjsmIzEwOTA7JiMxMDkxOyYjMTA4OTsmIzEwNzI7ICYjMTA3OTsmIzEwNzI7JiMxMTAzOyYjMTA3NDsmIzEwODM7JiMxMDc3OyYjMTA4NTsmIzEwODA7JiMxMTAzOyI+PHBhdGggZD0iTTk3LjIyLDIyNi44NSBDMTI0LjM5LDIyMS45IDE1NC4wNjczLDIxNi40OTYyIDE4Ni40MjczLDIxMC41OTYyICIgZmlsbD0ibm9uZSIgaWQ9IiYjMTA0MDsmIzEwNzY7JiMxMDg0OyYjMTA4MDsmIzEwODU7JiMxMDgwOyYjMTA4OTsmIzEwOTA7JiMxMDg4OyYjMTA3MjsmIzEwOTA7JiMxMDg2OyYjMTA4ODstdG8tJiMxMDQ4OyYjMTA3OTsmIzEwODQ7JiMxMDc3OyYjMTA4NTsmIzEwNzc7JiMxMDg1OyYjMTA4MDsmIzEwNzc7ICYjMTA4OTsmIzEwOTA7JiMxMDcyOyYjMTA5MDsmIzEwOTE7JiMxMDg5OyYjMTA3MjsgJiMxMDc5OyYjMTA3MjsmIzExMDM7JiMxMDc0OyYjMTA4MzsmIzEwNzc7JiMxMDg1OyYjMTA4MDsmIzExMDM7IiBzdHlsZT0ic3Ryb2tlOiMxODE4MTg7c3Ryb2tlLXdpZHRoOjEuMDsiLz48cG9seWdvbiBmaWxsPSIjMTgxODE4IiBwb2ludHM9IjE5Mi4zMywyMDkuNTIsMTgyLjc1ODUsMjA3LjE5OTIsMTg3LjQxMTEsMjEwLjQxNjgsMTg0LjE5MzQsMjE1LjA2OTQsMTkyLjMzLDIwOS41MiIgc3R5bGU9InN0cm9rZTojMTgxODE4O3N0cm9rZS13aWR0aDoxLjA7Ii8+PC9nPjwhLS1saW5rID8/Pz8/Pz8/Pz8/Pz8gdG8gPz8/Pz8/Pz8gPz8/PyA/Pz8/Pz8/Pz8tLT48ZyBpZD0ibGlua18mIzEwNDA7JiMxMDc2OyYjMTA4NDsmIzEwODA7JiMxMDg1OyYjMTA4MDsmIzEwODk7JiMxMDkwOyYjMTA4ODsmIzEwNzI7JiMxMDkwOyYjMTA4NjsmIzEwODg7XyYjMTA1NTsmIzEwODg7JiMxMDg2OyYjMTA4OTsmIzEwODQ7JiMxMDg2OyYjMTA5MDsmIzEwODg7ICYjMTA3NDsmIzEwODk7JiMxMDc3OyYjMTA5MzsgJiMxMDc5OyYjMTA3MjsmIzExMDM7JiMxMDc0OyYjMTA4MzsmIzEwNzc7JiMxMDg1OyYjMTA4MDsmIzEwODE7Ij48cGF0aCBkPSJNOTcuMjIsMjQzLjE1IEMxMjcuMDgsMjQ4LjU5IDE2MS4xOTcxLDI1NC44MDQ3IDE5NS45NDcxLDI2MS4xMzQ3ICIgZmlsbD0ibm9uZSIgaWQ9IiYjMTA0MDsmIzEwNzY7JiMxMDg0OyYjMTA4MDsmIzEwODU7JiMxMDgwOyYjMTA4OTsmIzEwOTA7JiMxMDg4OyYjMTA3MjsmIzEwOTA7JiMxMDg2OyYjMTA4ODstdG8tJiMxMDU1OyYjMTA4ODsmIzEwODY7JiMxMDg5OyYjMTA4NDsmIzEwODY7JiMxMDkwOyYjMTA4ODsgJiMxMDc0OyYjMTA4OTsmIzEwNzc7JiMxMDkzOyAmIzEwNzk7JiMxMDcyOyYjMTEwMzsmIzEwNzQ7JiMxMDgzOyYjMTA3NzsmIzEwODU7JiMxMDgwOyYjMTA4MTsiIHN0eWxlPSJzdHJva2U6IzE4MTgxODtzdHJva2Utd2lkdGg6MS4wOyIvPjxwb2x5Z29uIGZpbGw9IiMxODE4MTgiIHBvaW50cz0iMjAxLjg1LDI2Mi4yMSwxOTMuNzEyNSwyNTYuNjYxOSwxOTYuOTMwOSwyNjEuMzE0LDE5Mi4yNzg5LDI2NC41MzI0LDIwMS44NSwyNjIuMjEiIHN0eWxlPSJzdHJva2U6IzE4MTgxODtzdHJva2Utd2lkdGg6MS4wOyIvPjwvZz48IS0tbGluayA/Pz8/Pz8/Pz8/Pz8/IHRvID8/Pz8/Pz8/Pz8/LS0+PGcgaWQ9ImxpbmtfJiMxMDQwOyYjMTA3NjsmIzEwODQ7JiMxMDgwOyYjMTA4NTsmIzEwODA7JiMxMDg5OyYjMTA5MDsmIzEwODg7JiMxMDcyOyYjMTA5MDsmIzEwODY7JiMxMDg4O18mIzEwNTY7JiMxMDc3OyYjMTA3NTsmIzEwODA7JiMxMDg5OyYjMTA5MDsmIzEwODg7JiMxMDcyOyYjMTA5NDsmIzEwODA7JiMxMTAzOyI+PHBhdGggZD0iTTk0LjQ0LDI3Mi42NSBDMTEyLjg3LDI4Ny42IDEzNS40NCwzMDMuODUgMTU4LDMxNSBDMTgwLjQ4LDMyNi4xMSAyMDEuNDA2NSwzMzIuNTc4NSAyMjMuODk2NSwzMzcuODE4NSAiIGZpbGw9Im5vbmUiIGlkPSImIzEwNDA7JiMxMDc2OyYjMTA4NDsmIzEwODA7JiMxMDg1OyYjMTA4MDsmIzEwODk7JiMxMDkwOyYjMTA4ODsmIzEwNzI7JiMxMDkwOyYjMTA4NjsmIzEwODg7LXRvLSYjMTA1NjsmIzEwNzc7JiMxMDc1OyYjMTA4MDsmIzEwODk7JiMxMDkwOyYjMTA4ODsmIzEwNzI7JiMxMDk0OyYjMTA4MDsmIzExMDM7IiBzdHlsZT0ic3Ryb2tlOiMxODE4MTg7c3Ryb2tlLXdpZHRoOjEuMDsiLz48cG9seWdvbiBmaWxsPSIjMTgxODE4IiBwb2ludHM9IjIyOS43NCwzMzkuMTgsMjIxLjg4MjQsMzMzLjI0MjEsMjI0Ljg3MDQsMzM4LjA0NTQsMjIwLjA2NzEsMzQxLjAzMzQsMjI5Ljc0LDMzOS4xOCIgc3R5bGU9InN0cm9rZTojMTgxODE4O3N0cm9rZS13aWR0aDoxLjA7Ii8+PC9nPjwhLS1saW5rID8/Pz8/Pz8/Pz8/Pz8gdG8gPz8/Pz8/Pz8/Pz8tLT48ZyBpZD0ibGlua18mIzEwNDA7JiMxMDc2OyYjMTA4NDsmIzEwODA7JiMxMDg1OyYjMTA4MDsmIzEwODk7JiMxMDkwOyYjMTA4ODsmIzEwNzI7JiMxMDkwOyYjMTA4NjsmIzEwODg7XyYjMTA0MDsmIzEwNzQ7JiMxMDkwOyYjMTA4NjsmIzEwODg7JiMxMDgwOyYjMTA3OTsmIzEwNzI7JiMxMDk0OyYjMTA4MDsmIzExMDM7Ij48cGF0aCBkPSJNNzAuNTgsMjcyLjc5IEM4OC4zMywzMDUuOSAxMTguNDgsMzUyLjg2IDE1OCwzODAgQzE3Ny4zLDM5My4yNSAxOTUuOTU2NiwzOTkuNzk0MSAyMTcuNzU2Niw0MDQuMzQ0MSAiIGZpbGw9Im5vbmUiIGlkPSImIzEwNDA7JiMxMDc2OyYjMTA4NDsmIzEwODA7JiMxMDg1OyYjMTA4MDsmIzEwODk7JiMxMDkwOyYjMTA4ODsmIzEwNzI7JiMxMDkwOyYjMTA4NjsmIzEwODg7LXRvLSYjMTA0MDsmIzEwNzQ7JiMxMDkwOyYjMTA4NjsmIzEwODg7JiMxMDgwOyYjMTA3OTsmIzEwNzI7JiMxMDk0OyYjMTA4MDsmIzExMDM7IiBzdHlsZT0ic3Ryb2tlOiMxODE4MTg7c3Ryb2tlLXdpZHRoOjEuMDsiLz48cG9seWdvbiBmaWxsPSIjMTgxODE4IiBwb2ludHM9IjIyMy42Myw0MDUuNTcsMjE1LjYzNzEsMzk5LjgxNTYsMjE4LjczNTUsNDA0LjU0ODQsMjE0LjAwMjYsNDA3LjY0NjgsMjIzLjYzLDQwNS41NyIgc3R5bGU9InN0cm9rZTojMTgxODE4O3N0cm9rZS13aWR0aDoxLjA7Ii8+PC9nPjwhLS1yZXZlcnNlIGxpbmsgPz8/Pz8/Pz8/Pz8gdG8gPz8/Pz8/Pz8/Pz8/Pz8gPz8/Pz8/LS0+PGcgaWQ9ImxpbmtfJiMxMDQwOyYjMTA3NDsmIzEwOTA7JiMxMDg2OyYjMTA4ODsmIzEwODA7JiMxMDc5OyYjMTA3MjsmIzEwOTQ7JiMxMDgwOyYjMTEwMztfJiMxMDQyOyYjMTA4NjsmIzEwODk7JiMxMDg5OyYjMTA5MDsmIzEwNzI7JiMxMDg1OyYjMTA4NjsmIzEwNzQ7JiMxMDgzOyYjMTA3NzsmIzEwODU7JiMxMDgwOyYjMTA3NzsgJiMxMDg3OyYjMTA3MjsmIzEwODg7JiMxMDg2OyYjMTA4MzsmIzExMDM7Ij48cGF0aCBkPSJNMzQ1LjU4LDQxMiBDMzkxLjUzLDQxMiA0NDkuNjksNDEyIDUwMS45NCw0MTIgIiBmaWxsPSJub25lIiBpZD0iJiMxMDQwOyYjMTA3NDsmIzEwOTA7JiMxMDg2OyYjMTA4ODsmIzEwODA7JiMxMDc5OyYjMTA3MjsmIzEwOTQ7JiMxMDgwOyYjMTEwMzstYmFja3RvLSYjMTA0MjsmIzEwODY7JiMxMDg5OyYjMTA4OTsmIzEwOTA7JiMxMDcyOyYjMTA4NTsmIzEwODY7JiMxMDc0OyYjMTA4MzsmIzEwNzc7JiMxMDg1OyYjMTA4MDsmIzEwNzc7ICYjMTA4NzsmIzEwNzI7JiMxMDg4OyYjMTA4NjsmIzEwODM7JiMxMTAzOyIgc3R5bGU9InN0cm9rZTojMTgxODE4O3N0cm9rZS13aWR0aDoxLjA7c3Ryb2tlLWRhc2hhcnJheTo3LjAsNy4wOyIvPjxwb2x5Z29uIGZpbGw9IiMxODE4MTgiIHBvaW50cz0iMzM5LjU4LDQxMiwzNDguNTgsNDE2LDM0NC41OCw0MTIsMzQ4LjU4LDQwOCwzMzkuNTgsNDEyIiBzdHlsZT0ic3Ryb2tlOiMxODE4MTg7c3Ryb2tlLXdpZHRoOjEuMDsiLz48dGV4dCBmaWxsPSIjMDAwMDAwIiBmb250LWZhbWlseT0ic2Fucy1zZXJpZiIgZm9udC1zaXplPSIxMyIgbGVuZ3RoQWRqdXN0PSJzcGFjaW5nIiB0ZXh0TGVuZ3RoPSI0MSIgeD0iNDMwIiB5PSI0MTAuMjg5MSI+ZXh0ZW5kPC90ZXh0PjwvZz48IS0tU1JDPVtkUDFEWWk5MDQ4TnRWT2ZRWldpelc4WHQ2SkhnRzBvNE5oWktZMzh4blBLeDFJLUdnNDU3Q180QWhzdXFoeXFZOG9BNE1WUngtUWd3WGJ4RllXcWF6RmkzQXJxX3ozaE0zcVI2VjdQaTQwZk1FMjczMUotdXc1R1pkSTNNMkJiRVozN2xKUWROc19BMUZVdkVtbTR0ZjJ3NUxGSUJHYThYZm4yeFVrc1ZlNmFIZmYwTDgyNHBVVUdJVFlEU0F4NHRFRER0cjlCQzA0Q3d1dW5Pd0NVd0I2VmhpVzlySW9MZEZORVJLQ00xWnJKZEJwSHlMdzNqYzN0LXlIT0xqclhueEVGRHBCZGlsSkVhck1ZbWpOUVI1cVNXRU4td0VrdkN5c2t1a05uSmxCN3JIanJWXS0tPjwvZz48L3N2Zz4=;" parent="1" vertex="1">
            <mxGeometry x="110" width="691" height="438" as="geometry" />
          </mxCell>
        </UserObject>
      </root>
    </mxGraphModel>
  </diagram>
</mxfile>
